# xmcd
#
# Track frame offsets: 
#        150
#        21091
#        41079
#        66683
#        89584
#        113324
#        134969
#        149133
#        167250
#        180073
#        192414
#        209629
#        226959
#        247684
#        265278
#        283763
#
# Disc length: 3967 seconds
#
# Revision: 0
# Processed by: cddbd v1.5.2PL0 Copyright (c) Steve Scherf et al.
# Submitted via: ExactAudioCopy v0.99pb4
#
DISCID=f00f7d10
DTITLE=Various Artist - The Very Best of Rare Groove - Volumes 13 and 14
DYEAR=1900
DGENRE=Rare Groove
TTITLE0=Foxy - Madamoiselle
TTITLE1=Latoya Jackson - Lovely is She
TTITLE2=Keith Barrow - You Know You Wanna Be Loved
TTITLE3=Collage - When You Smile
TTITLE4=Leyroy Hudson - So Nice
TTITLE5=Sister Sledge - Easier to Love
TTITLE6=Yvonne Elliman - Hello Stranger
TTITLE7=Barry White - Can't Get Enough Love
TTITLE8=Gwen McRae - 90% of Me
TTITLE9=The Promises - Living in the Footsteps
TTITLE10=Tyrone Davis - Never Stop Loving You
TTITLE11=Rupert Holmes - Pina Colada
TTITLE12=Ruby Turner - See Me
TTITLE13=Gladys Knight and The Pips - Keep Giving Me Love
TTITLE14=Latoya Jackson - Love Has Passed Me By
TTITLE15=Barbra Mason - Yes, I'm Ready
EXTD=
EXTT0=
EXTT1=
EXTT2=
EXTT3=
EXTT4=
EXTT5=
EXTT6=
EXTT7=
EXTT8=
EXTT9=
EXTT10=
EXTT11=
EXTT12=
EXTT13=
EXTT14=
EXTT15=
PLAYORDER=
